<svg width="20" height="20" viewBox="0 0 20 20" fill="none" xmlns="http://www.w3.org/2000/svg">
<path fill-rule="evenodd" clip-rule="evenodd" d="M10 2C14.4183 2 18 5.58172 18 10C18 14.4183 14.4183 18 10 18C5.58172 18 2 14.4183 2 10C2 5.58172 5.58172 2 10 2ZM9.80208 13.3979C9.56256 13.3979 9.34162 13.4584 9.13854 13.5781C8.93542 13.6927 8.77396 13.849 8.65417 14.0469C8.53965 14.2447 8.48438 14.4605 8.48958 14.6948C8.48438 14.9292 8.53958 15.1479 8.65417 15.351C8.77394 15.5489 8.9355 15.7084 9.13854 15.8281C9.3415 15.9477 9.56274 16.0073 9.80208 16.0073C10.026 16.0073 10.2375 15.9479 10.4354 15.8281C10.6385 15.7083 10.8 15.5489 10.9198 15.351C11.0395 15.148 11.099 14.9291 11.099 14.6948C11.099 14.4607 11.0393 14.2446 10.9198 14.0469C10.8001 13.8492 10.6383 13.6927 10.4354 13.5781C10.2375 13.4583 10.026 13.3979 9.80208 13.3979ZM8.58333 4.55417L8.78646 12.476H10.7865L10.9896 4.55417H8.58333Z" fill="#FF2E4A"/>
</svg>
