<svg width="188" height="192" viewBox="0 0 188 192" fill="none" xmlns="http://www.w3.org/2000/svg">
<g clip-path="url(#clip0_1527_5971)">
<rect width="188" height="192" fill="#7A63FF"/>
<g style="mix-blend-mode:soft-light" opacity="0.15">
<path d="M132.054 164.441C133.969 159.906 131.844 154.678 127.309 152.763L118.053 148.855C113.518 146.94 111.394 141.712 113.308 137.177L114.069 135.376C115.983 130.841 121.212 128.717 125.747 130.631L153.227 142.233C157.762 144.148 159.886 149.376 157.972 153.911L146.37 181.392C144.455 185.927 139.227 188.051 134.692 186.136L132.891 185.376C128.356 183.461 126.231 178.233 128.146 173.698L132.054 164.441Z" fill="#E2E3E4"/>
<path d="M165.954 135.003C164.039 139.538 166.164 144.767 170.699 146.681L179.955 150.589C184.49 152.504 186.614 157.732 184.7 162.267L183.939 164.068C182.025 168.603 176.796 170.728 172.261 168.813L144.781 157.211C140.246 155.296 138.122 150.068 140.036 145.533L151.638 118.053C153.553 113.518 158.781 111.394 163.316 113.308L165.117 114.069C169.652 115.983 171.777 121.212 169.862 125.747L165.954 135.003Z" fill="white"/>
</g>
<path d="M138 153.5C138.198 153.5 138.365 153.433 138.499 153.298C138.633 153.164 138.7 152.998 138.7 152.8V150C138.7 149.802 138.633 149.636 138.498 149.502C138.364 149.368 138.198 149.3 138 149.3C137.802 149.3 137.636 149.367 137.502 149.502C137.367 149.636 137.3 149.803 137.3 150V152.8C137.3 152.998 137.367 153.165 137.502 153.299C137.636 153.433 137.802 153.5 138 153.5ZM138 147.9C138.198 147.9 138.365 147.833 138.499 147.698C138.633 147.564 138.7 147.398 138.7 147.2C138.7 147.002 138.632 146.836 138.498 146.702C138.364 146.567 138.198 146.5 138 146.5C137.802 146.5 137.636 146.567 137.502 146.702C137.368 146.836 137.3 147.002 137.3 147.2C137.3 147.398 137.367 147.564 137.502 147.699C137.636 147.834 137.803 147.901 138 147.9ZM138 157C137.032 157 136.122 156.816 135.27 156.448C134.418 156.081 133.677 155.582 133.047 154.952C132.418 154.323 131.919 153.582 131.552 152.73C131.184 151.878 131 150.968 131 150C131 149.032 131.183 148.122 131.552 147.27C131.92 146.418 132.418 145.677 133.047 145.047C133.677 144.418 134.417 143.919 135.27 143.552C136.123 143.184 137.033 143 138 143C138.967 143 139.877 143.184 140.73 143.552C141.583 143.919 142.323 144.418 142.952 145.047C143.582 145.677 144.08 146.418 144.449 147.27C144.818 148.122 145.001 149.032 145 150C144.999 150.968 144.815 151.878 144.448 152.73C144.082 153.582 143.583 154.323 142.952 154.952C142.322 155.582 141.581 156.081 140.73 156.449C139.879 156.817 138.969 157.001 138 157ZM138 155.6C139.563 155.6 140.887 155.057 141.972 153.972C143.057 152.887 143.6 151.563 143.6 150C143.6 148.437 143.057 147.112 141.972 146.027C140.887 144.942 139.563 144.4 138 144.4C136.437 144.4 135.112 144.942 134.027 146.027C132.942 147.112 132.4 148.437 132.4 150C132.4 151.563 132.942 152.887 134.027 153.972C135.112 155.057 136.437 155.6 138 155.6Z" fill="#ECECED"/>
<circle cx="82" cy="94" r="61.4464" fill="white" stroke="white" stroke-width="1.10714"/>
<g filter="url(#filter0_d_1527_5971)">
<path d="M141.786 94C141.786 127.019 115.019 153.786 81.9999 153.786C48.9812 153.786 22.2142 127.019 22.2142 94C22.2142 60.9813 48.9812 34.2143 81.9999 34.2143C115.019 34.2143 141.786 60.9813 141.786 94ZM43.1392 94C43.1392 115.462 60.5378 132.861 81.9999 132.861C103.462 132.861 120.861 115.462 120.861 94C120.861 72.5378 103.462 55.1393 81.9999 55.1393C60.5378 55.1393 43.1392 72.5378 43.1392 94Z" fill="#F4F3F6"/>
</g>
<path d="M68.7791 87.2324H67.7541V83.1195H65.1982V82.2632H67.7541V78.7082H68.7791V87.2324ZM65.2501 79.5905C65.2458 80.5592 65.023 81.4545 64.5819 82.2762C64.1408 83.0979 63.5158 83.8158 62.7071 84.4299C61.8984 85.0397 60.9426 85.5241 59.8398 85.883L59.3987 85.0657C60.2939 84.7716 61.0832 84.3953 61.7665 83.9369C62.4498 83.4785 62.9969 82.953 63.4077 82.3605C63.8186 81.768 64.0608 81.1301 64.1343 80.4468H59.9825V79.5905H65.2501ZM69.0775 89.9829H61.4356V86.3631H62.4736V89.1266H69.0775V89.9829ZM79.7165 81.7053H81.455V82.5486H79.7165V85.6236H78.7045V78.6953H79.7165V81.7053ZM76.5767 79.5516C76.5767 80.516 76.3583 81.3983 75.9215 82.1983C75.4847 82.9984 74.8597 83.6904 74.0467 84.2742C73.2336 84.8538 72.2649 85.3079 71.1404 85.6365L70.7123 84.8062C71.6378 84.538 72.4465 84.1877 73.1385 83.7553C73.8304 83.3185 74.3754 82.8146 74.7732 82.2437C75.1754 81.6729 75.4111 81.0566 75.4803 80.3949H71.2183V79.5516H76.5767ZM76.0707 85.7533C76.8405 85.7533 77.5087 85.8441 78.0752 86.0258C78.6461 86.2031 79.0829 86.4582 79.3856 86.7913C79.6927 87.1243 79.8462 87.5178 79.8462 87.9719C79.8462 88.4347 79.6927 88.8347 79.3856 89.172C79.0829 89.505 78.6461 89.7602 78.0752 89.9375C77.5087 90.1148 76.8405 90.2035 76.0707 90.2035C75.3052 90.2035 74.637 90.1148 74.0661 89.9375C73.4996 89.7602 73.0606 89.505 72.7492 89.172C72.4422 88.8347 72.2908 88.4347 72.2951 87.9719C72.2908 87.5178 72.4422 87.1243 72.7492 86.7913C73.0606 86.4582 73.5018 86.2031 74.0726 86.0258C74.6435 85.8441 75.3095 85.7533 76.0707 85.7533ZM76.0707 86.5707C75.5128 86.5664 75.0241 86.6204 74.6046 86.7329C74.1894 86.8453 73.8672 87.0097 73.638 87.2259C73.4131 87.4378 73.3028 87.6865 73.3071 87.9719C73.3028 88.2574 73.4131 88.5082 73.638 88.7244C73.8629 88.9363 74.1851 89.0985 74.6046 89.211C75.0241 89.3277 75.5128 89.3861 76.0707 89.3861C76.6329 89.3861 77.1238 89.3277 77.5433 89.211C77.9628 89.0985 78.2871 88.9363 78.5163 88.7244C78.7455 88.5082 78.8602 88.2574 78.8602 87.9719C78.8602 87.6865 78.7455 87.4378 78.5163 87.2259C78.2871 87.0097 77.9628 86.8453 77.5433 86.7329C77.1238 86.6204 76.6329 86.5664 76.0707 86.5707ZM91.7437 85.4549H90.7187V82.4449H88.3833V81.5885H90.7187V78.6953H91.7437V85.4549ZM91.7437 90.0738H84.2056V86.0258H91.7437V90.0738ZM85.2176 89.2434H90.7446V86.8431H85.2176V89.2434ZM86.1906 80.7452C86.1906 81.2382 86.3096 81.7183 86.5474 82.1854C86.7853 82.6524 87.1205 83.0698 87.553 83.4374C87.9854 83.8007 88.4785 84.0796 89.032 84.2742L88.5001 85.0786C87.8557 84.8451 87.2891 84.4991 86.8004 84.0407C86.3161 83.5779 85.9485 83.046 85.6976 82.4449C85.4468 83.1109 85.0662 83.6969 84.5559 84.2029C84.0456 84.7089 83.4487 85.0873 82.7654 85.3381L82.2335 84.5337C82.7957 84.3305 83.2995 84.0364 83.745 83.6515C84.1904 83.2622 84.5386 82.8168 84.7894 82.3151C85.0403 81.8091 85.1657 81.2858 85.1657 80.7452V80.2911H82.5578V79.4478H88.7725V80.2911H86.1906V80.7452ZM99.4504 79.7721C99.4504 80.2911 99.6515 80.7885 100.054 81.2642C100.46 81.7399 100.988 82.14 101.637 82.4643C102.285 82.7887 102.958 82.9984 103.654 83.0936L103.239 83.9239C102.633 83.8245 102.047 83.6515 101.481 83.405C100.914 83.1541 100.408 82.8427 99.9629 82.4708C99.5174 82.0945 99.1736 81.6772 98.9314 81.2188C98.6936 81.6772 98.3498 82.0945 97.9 82.4708C97.4545 82.8427 96.9485 83.1541 96.382 83.405C95.8154 83.6515 95.2294 83.8245 94.624 83.9239L94.2088 83.0936C94.9094 82.9984 95.5819 82.7908 96.2263 82.4708C96.8707 82.1464 97.394 81.7486 97.7962 81.2772C98.1984 80.8014 98.3995 80.2998 98.3995 79.7721V79.1104H99.4504V79.7721ZM104.173 86.0517H99.3985V90.2294H98.3995V86.0517H93.6639V85.1954H104.173V86.0517Z" fill="black"/>
<path d="M71.8994 98.6554C72.5654 98.6554 73.1752 98.8024 73.7288 99.0965C74.2824 99.3863 74.73 99.8685 75.0716 100.543C75.4176 101.218 75.5928 102.102 75.5971 103.196C75.5971 104.265 75.4436 105.184 75.1365 105.953C74.8295 106.719 74.3927 107.303 73.8261 107.705C73.2596 108.107 72.5914 108.308 71.8216 108.308C71.2291 108.308 70.6971 108.194 70.2257 107.964C69.7543 107.735 69.3738 107.417 69.084 107.011C68.7986 106.604 68.6212 106.142 68.552 105.623H70.2257C70.3122 105.999 70.4939 106.297 70.7707 106.518C71.0518 106.734 71.4021 106.842 71.8216 106.842C72.2714 106.842 72.6563 106.715 72.9763 106.459C73.2963 106.204 73.5385 105.837 73.7029 105.357C73.8715 104.872 73.958 104.295 73.9623 103.625H73.8585C73.6207 104.031 73.2877 104.349 72.8595 104.578C72.4357 104.807 71.9643 104.922 71.4453 104.922C70.8917 104.922 70.3879 104.792 69.9338 104.533C69.484 104.269 69.1272 103.906 68.8634 103.443C68.5996 102.98 68.4655 102.457 68.4612 101.873C68.4612 101.263 68.6039 100.714 68.8894 100.225C69.1748 99.7366 69.577 99.3538 70.096 99.077C70.6193 98.7959 71.2204 98.6554 71.8994 98.6554ZM71.9383 100.018C71.601 100.018 71.2918 100.098 71.0107 100.258C70.7296 100.418 70.509 100.636 70.349 100.913C70.189 101.185 70.109 101.484 70.109 101.808C70.109 102.15 70.1846 102.459 70.336 102.736C70.4917 103.013 70.7058 103.233 70.9782 103.397C71.255 103.558 71.5664 103.638 71.9124 103.638C72.2454 103.638 72.5525 103.555 72.8336 103.391C73.119 103.227 73.3439 103.008 73.5082 102.736C73.6726 102.459 73.7548 102.163 73.7548 101.847C73.7548 101.523 73.6769 101.222 73.5212 100.945C73.3655 100.664 73.1493 100.439 72.8725 100.271C72.5957 100.102 72.2843 100.018 71.9383 100.018ZM80.4625 108.308C79.71 108.308 79.0634 108.12 78.5228 107.744C77.9865 107.363 77.5735 106.812 77.2838 106.09C76.9983 105.367 76.8556 104.498 76.8556 103.482C76.8556 102.47 76.9983 101.603 77.2838 100.88C77.5735 100.154 77.9887 99.6025 78.5293 99.2262C79.0699 98.8457 79.7143 98.6554 80.4625 98.6554C81.2063 98.6554 81.8486 98.8457 82.3892 99.2262C82.9341 99.6025 83.3493 100.154 83.6347 100.88C83.9245 101.603 84.0693 102.47 84.0693 103.482C84.0693 104.498 83.9245 105.367 83.6347 106.09C83.3493 106.812 82.9363 107.363 82.3957 107.744C81.8594 108.12 81.215 108.308 80.4625 108.308ZM80.4625 106.894C80.8604 106.894 81.1999 106.766 81.481 106.511C81.7664 106.252 81.9848 105.869 82.1362 105.363C82.2919 104.853 82.3697 104.226 82.3697 103.482C82.3697 102.747 82.2919 102.124 82.1362 101.614C81.9848 101.099 81.7664 100.712 81.481 100.452C81.1955 100.189 80.856 100.057 80.4625 100.057C80.0689 100.057 79.7294 100.189 79.444 100.452C79.1586 100.712 78.938 101.099 78.7823 101.614C78.6309 102.124 78.5553 102.747 78.5553 103.482C78.5553 104.226 78.6309 104.853 78.7823 105.363C78.938 105.869 79.1564 106.252 79.4375 106.511C79.7229 106.766 80.0646 106.894 80.4625 106.894ZM94.9159 104.416H93.4757V101.575H91.4517V100.394H93.4757V97.6044H94.9159V104.416ZM94.9159 109.191H87.1183V104.922H94.9159V109.191ZM88.5585 108.023H93.5017V106.064H88.5585V108.023ZM89.4018 99.5376C89.4018 100.018 89.5078 100.485 89.7197 100.939C89.9316 101.393 90.2451 101.802 90.6603 102.165C91.0755 102.528 91.5772 102.811 92.1653 103.015L91.4388 104.156C90.7987 103.936 90.2451 103.616 89.778 103.196C89.3153 102.777 88.952 102.284 88.6882 101.717C88.4201 102.344 88.0417 102.889 87.553 103.352C87.0643 103.811 86.4826 104.152 85.8079 104.377L85.0684 103.248C85.6738 103.045 86.1906 102.751 86.6188 102.366C87.0513 101.981 87.3778 101.544 87.5984 101.056C87.8232 100.563 87.9357 100.052 87.9357 99.5246V99.4338H85.4965V98.2661H91.828V99.4338H89.4018V99.5376Z" fill="black"/>
<g filter="url(#filter1_d_1527_5971)">
<mask id="path-8-inside-1_1527_5971" fill="white">
<path d="M81.9999 36.4286C81.9999 35.2057 82.992 34.21 84.214 34.2553C97.6575 34.7532 110.565 39.7738 120.828 48.5386C131.652 57.7836 138.823 70.5876 141.05 84.6475C143.276 98.7074 140.413 113.1 132.976 125.238C125.538 137.375 114.013 146.461 100.475 150.86C86.9363 155.259 72.2725 154.682 59.1209 149.235C45.9694 143.787 35.1931 133.826 28.7305 121.142C22.2679 108.459 20.543 93.8851 23.8661 80.0433C27.0166 66.9204 34.5084 55.2716 45.0917 46.9669C46.0537 46.212 47.4415 46.4344 48.1603 47.4237L57.8567 60.7696C58.5755 61.759 58.3515 63.139 57.4047 63.913C50.8449 69.2751 46.2003 76.6505 44.213 84.9281C42.0529 93.9253 43.1741 103.398 47.3748 111.642C51.5755 119.887 58.5801 126.362 67.1286 129.903C75.6771 133.444 85.2086 133.818 94.0086 130.959C102.809 128.099 110.3 122.194 115.134 114.305C119.969 106.415 121.83 97.0598 120.382 87.9209C118.935 78.7819 114.274 70.4593 107.238 64.4501C100.765 58.9214 92.672 55.6847 84.2133 55.2023C82.9923 55.1327 81.9999 54.1479 81.9999 52.925V36.4286Z"/>
</mask>
<path d="M81.9999 36.4286C81.9999 35.2057 82.992 34.21 84.214 34.2553C97.6575 34.7532 110.565 39.7738 120.828 48.5386C131.652 57.7836 138.823 70.5876 141.05 84.6475C143.276 98.7074 140.413 113.1 132.976 125.238C125.538 137.375 114.013 146.461 100.475 150.86C86.9363 155.259 72.2725 154.682 59.1209 149.235C45.9694 143.787 35.1931 133.826 28.7305 121.142C22.2679 108.459 20.543 93.8851 23.8661 80.0433C27.0166 66.9204 34.5084 55.2716 45.0917 46.9669C46.0537 46.212 47.4415 46.4344 48.1603 47.4237L57.8567 60.7696C58.5755 61.759 58.3515 63.139 57.4047 63.913C50.8449 69.2751 46.2003 76.6505 44.213 84.9281C42.0529 93.9253 43.1741 103.398 47.3748 111.642C51.5755 119.887 58.5801 126.362 67.1286 129.903C75.6771 133.444 85.2086 133.818 94.0086 130.959C102.809 128.099 110.3 122.194 115.134 114.305C119.969 106.415 121.83 97.0598 120.382 87.9209C118.935 78.7819 114.274 70.4593 107.238 64.4501C100.765 58.9214 92.672 55.6847 84.2133 55.2023C82.9923 55.1327 81.9999 54.1479 81.9999 52.925V36.4286Z" fill="#C596FF"/>
<path d="M81.9999 36.4286C81.9999 35.2057 82.992 34.21 84.214 34.2553C97.6575 34.7532 110.565 39.7738 120.828 48.5386C131.652 57.7836 138.823 70.5876 141.05 84.6475C143.276 98.7074 140.413 113.1 132.976 125.238C125.538 137.375 114.013 146.461 100.475 150.86C86.9363 155.259 72.2725 154.682 59.1209 149.235C45.9694 143.787 35.1931 133.826 28.7305 121.142C22.2679 108.459 20.543 93.8851 23.8661 80.0433C27.0166 66.9204 34.5084 55.2716 45.0917 46.9669C46.0537 46.212 47.4415 46.4344 48.1603 47.4237L57.8567 60.7696C58.5755 61.759 58.3515 63.139 57.4047 63.913C50.8449 69.2751 46.2003 76.6505 44.213 84.9281C42.0529 93.9253 43.1741 103.398 47.3748 111.642C51.5755 119.887 58.5801 126.362 67.1286 129.903C75.6771 133.444 85.2086 133.818 94.0086 130.959C102.809 128.099 110.3 122.194 115.134 114.305C119.969 106.415 121.83 97.0598 120.382 87.9209C118.935 78.7819 114.274 70.4593 107.238 64.4501C100.765 58.9214 92.672 55.6847 84.2133 55.2023C82.9923 55.1327 81.9999 54.1479 81.9999 52.925V36.4286Z" stroke="white" stroke-width="2.21429" mask="url(#path-8-inside-1_1527_5971)"/>
</g>
<rect width="188" height="192" fill="#7A63FF" fill-opacity="0.4"/>
<path d="M49.7407 77.6104H47.0674C47.1016 78.0742 47.2358 78.5186 47.4702 78.9434C47.7046 79.3633 48.0439 79.7393 48.4883 80.0713C48.9326 80.3984 49.4771 80.6523 50.1216 80.833L49.2427 82.2979C48.5103 82.0879 47.8804 81.7754 47.353 81.3604C46.8306 80.9453 46.4204 80.4497 46.1226 79.8735C45.8198 80.5034 45.3975 81.0479 44.8555 81.5068C44.3184 81.9658 43.6714 82.3076 42.9146 82.5322L41.9771 81.082C42.6411 80.8867 43.2026 80.6133 43.6616 80.2617C44.1206 79.9053 44.4722 79.5024 44.7163 79.0532C44.9604 78.5991 45.1021 78.1182 45.1411 77.6104H42.4604V76.0869H49.7407V77.6104ZM47.0454 84.2021C48.1978 84.1436 49.2085 84.0557 50.0776 83.9385L50.2095 85.2861C49.394 85.4375 48.5469 85.5522 47.668 85.6304C46.7939 85.7036 45.981 85.7524 45.229 85.7769C44.4771 85.7964 43.5835 85.8086 42.5483 85.8135H42.1528L41.9038 84.29C43.3003 84.29 44.3892 84.2827 45.1704 84.2681V81.9756H47.0454V84.2021ZM54.4722 81.8438H52.6558V88.3477H50.7808V75.0176H52.6558V80.2764H54.4722V81.8438ZM67.187 83.1182H55.0288V81.624H67.187V83.1182ZM65.7075 88.3477H63.8472V85.5938H56.3765V84.1289H65.7075V88.3477ZM62.0161 76.2627H66.0151V77.7129H62.1626C62.2358 78.0449 62.4434 78.3525 62.7852 78.6357C63.1318 78.9189 63.6274 79.1558 64.272 79.3462C64.9214 79.5366 65.7124 79.6611 66.645 79.7197L66.0737 81.1406C64.8677 81.0527 63.8423 80.8403 62.9976 80.5034C62.1528 80.1616 61.5181 79.7173 61.0933 79.1704C60.6636 79.7173 60.0264 80.1616 59.1816 80.5034C58.3369 80.8403 57.314 81.0527 56.1128 81.1406L55.5415 79.7197C56.4692 79.6611 57.2554 79.5366 57.8999 79.3462C58.5444 79.1558 59.0376 78.9189 59.3794 78.6357C59.7261 78.3525 59.9385 78.0449 60.0166 77.7129H56.2007V76.2627H60.1704V75.0615H62.0161V76.2627ZM82.6997 88.377H80.854V81.2285H78.3784V85.2129H71.9478V76.043H73.8081V79.2803H76.5474V76.043H78.3784V79.7197H80.854V75.0176H82.6997V88.377ZM76.5474 83.7188V80.7451H73.8081V83.7188H76.5474ZM96.5718 83.6895H84.3843V82.2246H96.5718V83.6895ZM95.3413 88.1133H85.8784V84.3633H87.7241V86.6191H95.3413V88.1133ZM95.2681 81.3896H85.9077V75.457H95.1509V76.8779H87.7827V77.7275H94.8433V79.1045H87.7827V79.9834H95.2681V81.3896ZM103.457 75.208C104.477 75.208 105.349 75.2959 106.071 75.4717C106.794 75.6475 107.346 75.9062 107.727 76.248C108.107 76.585 108.3 76.9951 108.305 77.4785C108.3 77.9668 108.107 78.3818 107.727 78.7236C107.346 79.0654 106.794 79.3242 106.071 79.5C105.349 79.6758 104.477 79.7637 103.457 79.7637C102.431 79.7637 101.555 79.6758 100.827 79.5C100.1 79.3242 99.5454 79.0654 99.1646 78.7236C98.7837 78.3818 98.5933 77.9668 98.5933 77.4785C98.5933 76.9951 98.7837 76.585 99.1646 76.248C99.5454 75.9062 100.1 75.6475 100.827 75.4717C101.555 75.2959 102.431 75.208 103.457 75.208ZM103.457 76.5703C102.485 76.5703 101.755 76.6484 101.267 76.8047C100.783 76.9561 100.546 77.1807 100.556 77.4785C100.551 77.8008 100.783 78.0327 101.252 78.1743C101.721 78.3159 102.456 78.3867 103.457 78.3867C104.462 78.3867 105.2 78.3159 105.668 78.1743C106.137 78.0327 106.372 77.8008 106.372 77.4785C106.372 77.1807 106.13 76.9561 105.646 76.8047C105.163 76.6484 104.433 76.5703 103.457 76.5703ZM109.536 81.873H97.3774V80.3936H109.536V81.873ZM108.056 86.0479H100.629V86.8535H108.408V88.2598H98.7983V84.7441H106.21V84.0117H98.7837V82.6494H108.056V86.0479ZM124.58 79.1924H115.307V75.1787H117.167V77.7129H124.58V79.1924ZM125.986 81.4775H120.771V82.5176H124.521V85.9893H117.08V86.8242H124.931V88.2598H115.205V84.6855H122.661V83.9238H115.175V82.5176H118.94V81.4775H113.784V79.9834H125.986V81.4775ZM137.998 88.377H136.137V81.3457H133.984V79.8223H136.137V75.0176H137.998V88.377ZM133.237 81.126H129.091V83.7334C130.122 83.7236 131.032 83.6943 131.823 83.6455C132.614 83.5918 133.408 83.4941 134.204 83.3525L134.35 84.876C133.417 85.0273 132.482 85.1323 131.545 85.1909C130.612 85.2446 129.541 85.2715 128.33 85.2715H127.231V79.6465H131.42V77.6396H127.202V76.1309H133.237V81.126ZM22.48 103.794C22.48 104.946 22.2432 105.984 21.7695 106.907C21.2959 107.825 20.6025 108.611 19.6895 109.265C18.7812 109.915 17.6753 110.42 16.3716 110.781L15.6392 109.331C17.0552 108.945 18.1758 108.403 19.001 107.705C19.8262 107.007 20.3193 106.201 20.4805 105.288H16.3569V103.794H22.48ZM26.8013 110.488H24.9409V107.72H22.5679V106.196H24.9409V103.032H26.8013V110.488ZM26.8013 116.187H17.9683V111.016H26.8013V116.187ZM19.7993 114.722H24.9556V112.48H19.7993V114.722ZM33.73 105.654C33.73 106.206 33.8447 106.738 34.0742 107.251C34.3086 107.759 34.6626 108.215 35.1362 108.621C35.6147 109.021 36.2056 109.326 36.9087 109.536L35.9565 111.001C35.229 110.771 34.5991 110.43 34.0669 109.976C33.5347 109.521 33.1147 108.984 32.8071 108.364C32.4946 109.038 32.0649 109.624 31.5181 110.122C30.9712 110.62 30.3169 110.996 29.5552 111.25L28.5884 109.785C29.3013 109.556 29.8994 109.226 30.3828 108.796C30.8662 108.367 31.2275 107.881 31.4668 107.339C31.7061 106.797 31.8257 106.235 31.8257 105.654V105.464H29.0864V103.97H36.4106V105.464H33.73V105.654ZM39.6919 112.671H37.8169V103.032H39.6919V112.671ZM40.0435 116.113H30.7563V111.792H32.646V114.619H40.0435V116.113ZM52.729 109.727H50.8687V108.701H47.8218V107.28H50.8687V106.108H47.9609C47.5557 107.104 46.8794 107.927 45.9321 108.577C44.9849 109.226 43.769 109.712 42.2847 110.034L41.6548 108.511C43.1343 108.218 44.2573 107.776 45.0239 107.185C45.7905 106.589 46.2373 105.874 46.3643 105.039H42.4019V103.53H48.437C48.437 103.936 48.4077 104.321 48.3491 104.688H50.8687V103.018H52.729V109.727ZM52.729 113.857H45.7563V114.736H53.022V116.216H43.8813V112.48H50.854V111.675H43.8667V110.21H52.729V113.857ZM61.9575 105.42V105.625C61.9478 106.519 61.9209 107.332 61.877 108.064C61.833 108.792 61.7378 109.614 61.5913 110.532L59.7456 110.386C59.8774 109.526 59.9653 108.752 60.0093 108.064C60.0532 107.375 60.0801 106.636 60.0898 105.845H55.0435V104.351H61.9575V105.42ZM58.6323 112.041C60.0825 111.982 61.3716 111.88 62.4995 111.733L62.6167 113.125C61.4937 113.315 60.3145 113.447 59.0791 113.521C57.8438 113.589 56.5522 113.623 55.2046 113.623H54.5161L54.3403 112.129H54.9556L56.7866 112.1V108.174H58.6323V112.041ZM65.019 108.379H66.8354V109.932H65.019V116.348H63.1294V103.018H65.019V108.379ZM79.6089 110.386H67.4067V108.994H79.6089V110.386ZM78.144 114.194H70.6733V114.956H78.5396V116.23H68.813V113.008H76.2983V112.334H68.7983V111.045H78.144V114.194ZM78.1294 106.387H70.7905V107.104H78.3638V108.364H68.9302V105.2H76.2544V104.526H68.9009V103.252H78.1294V106.387ZM96.0005 112.524H90.8296V116.362H88.9839V112.524H83.8423V111.001H96.0005V112.524ZM94.8872 106.021H90.8882C90.9614 106.431 91.1812 106.831 91.5474 107.222C91.9136 107.612 92.4214 107.952 93.0708 108.24C93.7202 108.528 94.4819 108.721 95.356 108.818L94.6821 110.283C93.5835 110.156 92.6265 109.883 91.811 109.463C91.0005 109.043 90.3706 108.518 89.9214 107.888C89.4771 108.518 88.8447 109.043 88.0244 109.463C87.209 109.883 86.2446 110.156 85.1313 110.283L84.4575 108.818C85.3315 108.721 86.0933 108.528 86.7427 108.24C87.397 107.952 87.9097 107.612 88.2808 107.222C88.6519 106.831 88.8765 106.431 88.9546 106.021H84.9409V104.556H88.9839V103.032H90.8296V104.556H94.8872V106.021ZM107.324 108.13H109.213V109.668H107.324V116.318H105.449V103.018H107.324V108.13ZM103.764 104.38C103.754 106.504 103.276 108.381 102.329 110.012C101.386 111.638 99.8481 112.974 97.7144 114.019L96.6597 112.583C98.2466 111.787 99.4648 110.845 100.314 109.756C101.169 108.667 101.684 107.383 101.86 105.903H97.4214V104.38H103.764ZM116.201 106.533H109.755V105.054H112.07V103.384H113.916V105.054H116.201V106.533ZM113.007 107.134C113.569 107.134 114.069 107.271 114.509 107.544C114.953 107.812 115.3 108.186 115.549 108.665C115.803 109.143 115.932 109.688 115.937 110.298C115.932 110.908 115.803 111.455 115.549 111.938C115.3 112.422 114.953 112.8 114.509 113.074C114.069 113.342 113.569 113.477 113.007 113.477C112.446 113.477 111.94 113.342 111.491 113.074C111.047 112.8 110.698 112.422 110.444 111.938C110.19 111.455 110.063 110.908 110.063 110.298C110.063 109.692 110.19 109.15 110.444 108.672C110.698 108.188 111.047 107.812 111.491 107.544C111.94 107.271 112.446 107.134 113.007 107.134ZM113.007 108.687C112.612 108.687 112.294 108.831 112.055 109.119C111.821 109.407 111.704 109.8 111.704 110.298C111.704 110.796 111.821 111.187 112.055 111.47C112.294 111.753 112.612 111.895 113.007 111.895C113.388 111.895 113.696 111.753 113.93 111.47C114.169 111.187 114.292 110.796 114.296 110.298C114.292 109.8 114.169 109.407 113.93 109.119C113.696 108.831 113.388 108.687 113.007 108.687ZM121.298 116.348H119.526V109.932H118.442V115.776H116.699V103.281H118.442V108.438H119.526V103.018H121.298V116.348ZM134.892 111.865H129.707V116.348H127.861V111.865H122.734V110.371H134.892V111.865ZM133.808 105.186H129.919C129.982 105.635 130.192 106.064 130.549 106.475C130.905 106.88 131.403 107.231 132.043 107.529C132.683 107.822 133.442 108.022 134.321 108.13L133.647 109.595C132.495 109.438 131.503 109.126 130.673 108.657C129.848 108.188 129.23 107.605 128.82 106.907C128.405 107.605 127.788 108.188 126.967 108.657C126.147 109.126 125.166 109.438 124.023 109.595L123.334 108.13C124.199 108.022 124.948 107.822 125.583 107.529C126.223 107.231 126.721 106.88 127.077 106.475C127.438 106.064 127.653 105.635 127.722 105.186H123.833V103.721H133.808V105.186ZM139.975 106.372C139.975 107.563 140.166 108.65 140.546 109.631C140.927 110.613 141.542 111.377 142.392 111.924L141.381 113.374C140.307 112.725 139.538 111.658 139.074 110.173C138.825 110.955 138.496 111.646 138.085 112.246C137.675 112.842 137.177 113.315 136.591 113.667L135.449 112.29C136.381 111.709 137.065 110.901 137.5 109.866C137.939 108.826 138.159 107.69 138.159 106.46V104.16H139.975V106.372ZM147.255 116.348H145.468V103.018H147.255V116.348ZM144.458 115.732H142.714V109.038H140.986V107.515H142.714V103.208H144.458V115.732ZM160.864 114.795H148.662V113.257H151.386V109.998C150.859 109.68 150.451 109.29 150.163 108.826C149.875 108.357 149.731 107.832 149.731 107.251C149.731 106.543 149.946 105.918 150.375 105.376C150.805 104.834 151.398 104.414 152.155 104.116C152.917 103.813 153.779 103.662 154.741 103.662C155.698 103.662 156.555 103.813 157.312 104.116C158.073 104.414 158.671 104.834 159.106 105.376C159.541 105.918 159.76 106.543 159.765 107.251C159.76 107.817 159.616 108.333 159.333 108.796C159.055 109.255 158.662 109.644 158.154 109.961V113.257H160.864V114.795ZM154.741 105.142C154.106 105.142 153.549 105.225 153.071 105.391C152.597 105.557 152.229 105.798 151.965 106.116C151.706 106.428 151.577 106.807 151.577 107.251C151.577 107.681 151.706 108.054 151.965 108.372C152.229 108.689 152.6 108.933 153.078 109.104C153.557 109.275 154.111 109.36 154.741 109.36C155.366 109.36 155.917 109.275 156.396 109.104C156.875 108.933 157.246 108.689 157.509 108.372C157.778 108.054 157.915 107.681 157.919 107.251C157.915 106.812 157.78 106.433 157.517 106.116C157.253 105.798 156.882 105.557 156.403 105.391C155.925 105.225 155.371 105.142 154.741 105.142ZM156.264 113.257V110.671C155.761 110.764 155.253 110.811 154.741 110.811C154.194 110.811 153.691 110.764 153.232 110.671V113.257H156.264ZM164.467 111.821H162.592L162.402 104.395H164.658L164.467 111.821ZM163.544 115.132C163.32 115.132 163.112 115.076 162.922 114.963C162.731 114.851 162.58 114.702 162.468 114.517C162.36 114.326 162.309 114.121 162.314 113.901C162.309 113.682 162.36 113.479 162.468 113.293C162.58 113.108 162.731 112.961 162.922 112.854C163.112 112.742 163.32 112.686 163.544 112.686C163.754 112.686 163.952 112.742 164.138 112.854C164.328 112.961 164.479 113.108 164.592 113.293C164.704 113.479 164.76 113.682 164.76 113.901C164.76 114.121 164.704 114.326 164.592 114.517C164.479 114.702 164.328 114.851 164.138 114.963C163.952 115.076 163.754 115.132 163.544 115.132Z" fill="white"/>
</g>
<defs>
<filter id="filter0_d_1527_5971" x="17.7857" y="29.7857" width="128.429" height="128.429" filterUnits="userSpaceOnUse" color-interpolation-filters="sRGB">
<feFlood flood-opacity="0" result="BackgroundImageFix"/>
<feColorMatrix in="SourceAlpha" type="matrix" values="0 0 0 0 0 0 0 0 0 0 0 0 0 0 0 0 0 0 127 0" result="hardAlpha"/>
<feOffset/>
<feGaussianBlur stdDeviation="2.21429"/>
<feComposite in2="hardAlpha" operator="out"/>
<feColorMatrix type="matrix" values="0 0 0 0 0 0 0 0 0 0 0 0 0 0 0 0 0 0 0.25 0"/>
<feBlend mode="normal" in2="BackgroundImageFix" result="effect1_dropShadow_1527_5971"/>
<feBlend mode="normal" in="SourceGraphic" in2="effect1_dropShadow_1527_5971" result="shape"/>
</filter>
<filter id="filter1_d_1527_5971" x="17.7856" y="29.8252" width="128.429" height="128.389" filterUnits="userSpaceOnUse" color-interpolation-filters="sRGB">
<feFlood flood-opacity="0" result="BackgroundImageFix"/>
<feColorMatrix in="SourceAlpha" type="matrix" values="0 0 0 0 0 0 0 0 0 0 0 0 0 0 0 0 0 0 127 0" result="hardAlpha"/>
<feOffset/>
<feGaussianBlur stdDeviation="2.21429"/>
<feComposite in2="hardAlpha" operator="out"/>
<feColorMatrix type="matrix" values="0 0 0 0 0 0 0 0 0 0 0 0 0 0 0 0 0 0 0.25 0"/>
<feBlend mode="normal" in2="BackgroundImageFix" result="effect1_dropShadow_1527_5971"/>
<feBlend mode="normal" in="SourceGraphic" in2="effect1_dropShadow_1527_5971" result="shape"/>
</filter>
<clipPath id="clip0_1527_5971">
<rect width="188" height="192" fill="white"/>
</clipPath>
</defs>
</svg>
