<svg xmlns="http://www.w3.org/2000/svg" width="84" height="16" viewBox="0 0 84 16" fill="none">
  <path d="M0 8.33111C0 6.86426 0.328599 5.55407 0.985797 4.40053C1.65728 3.23275 2.5645 2.32844 3.70745 1.68758C4.86469 1.03249 6.15766 0.70494 7.58635 0.70494C9.25792 0.70494 10.7223 1.13218 11.9796 1.98665C13.2368 2.84112 14.1155 4.02314 14.6155 5.53271H11.1652C10.8223 4.82065 10.3366 4.2866 9.70796 3.93057C9.09362 3.57454 8.37927 3.39653 7.56492 3.39653C6.69342 3.39653 5.91478 3.60303 5.22901 4.01602C4.55752 4.41477 4.02891 4.98442 3.64316 5.72497C3.2717 6.46551 3.08597 7.33422 3.08597 8.33111C3.08597 9.31375 3.2717 10.1825 3.64316 10.9372C4.02891 11.6778 4.55752 12.2546 5.22901 12.6676C5.91478 13.0663 6.69342 13.2657 7.56492 13.2657C8.37927 13.2657 9.09362 13.0877 9.70796 12.7316C10.3366 12.3614 10.8223 11.8202 11.1652 11.1081H14.6155C14.1155 12.632 13.2368 13.8211 11.9796 14.6756C10.7366 15.5158 9.27221 15.9359 7.58635 15.9359C6.15766 15.9359 4.86469 15.6155 3.70745 14.9746C2.5645 14.3195 1.65728 13.4152 0.985797 12.2617C0.328599 11.1081 0 9.79795 0 8.33111Z" fill="#19144B"/>
  <path d="M16.4066 9.8478C16.4066 8.65154 16.6424 7.59056 17.1138 6.66489C17.5996 5.73921 18.2496 5.02715 19.064 4.52871C19.8926 4.03026 20.8141 3.78104 21.8285 3.78104C22.7143 3.78104 23.4858 3.95906 24.143 4.31509C24.8145 4.67112 25.3502 5.11972 25.7503 5.66088V3.9733H28.7719V15.8077H25.7503V14.0774C25.3645 14.6328 24.8288 15.0957 24.143 15.466C23.4715 15.822 22.6929 16 21.8071 16C20.807 16 19.8926 15.7437 19.064 15.231C18.2496 14.7183 17.5996 13.9991 17.1138 13.0734C16.6424 12.1335 16.4066 11.0583 16.4066 9.8478ZM25.7503 9.89052C25.7503 9.16422 25.6074 8.54473 25.3217 8.03204C25.0359 7.50512 24.6502 7.10636 24.1644 6.83578C23.6787 6.55096 23.1572 6.40854 22.6 6.40854C22.0428 6.40854 21.5285 6.54384 21.057 6.81442C20.5855 7.085 20.1998 7.48376 19.8998 8.01068C19.614 8.52336 19.4712 9.13574 19.4712 9.8478C19.4712 10.5599 19.614 11.1865 19.8998 11.7276C20.1998 12.2546 20.5855 12.6604 21.057 12.9453C21.5428 13.2301 22.0571 13.3725 22.6 13.3725C23.1572 13.3725 23.6787 13.2372 24.1644 12.9666C24.6502 12.6818 25.0359 12.283 25.3217 11.7704C25.6074 11.2434 25.7503 10.6168 25.7503 9.89052Z" fill="#19144B"/>
  <path d="M34.7025 5.81041C35.0882 5.1838 35.5882 4.69248 36.2026 4.33645C36.8312 3.98042 37.5456 3.8024 38.3456 3.8024V6.94259H37.5527C36.6098 6.94259 35.8954 7.16333 35.4097 7.60481C34.9382 8.04628 34.7025 8.81531 34.7025 9.91188V15.8077H31.7022V3.9733H34.7025V5.81041Z" fill="#19144B"/>
  <path d="M51.4031 9.63418C51.4031 10.0614 51.3745 10.4459 51.3174 10.7877H42.6381C42.7095 11.6422 43.0095 12.3115 43.5381 12.7957C44.0667 13.2799 44.7168 13.522 45.4883 13.522C46.6027 13.522 47.3956 13.0449 47.8671 12.0908H51.1031C50.7602 13.2301 50.103 14.17 49.1315 14.9105C48.16 15.6368 46.967 16 45.5526 16C44.4096 16 43.381 15.7508 42.4666 15.2523C41.5665 14.7397 40.8593 14.0205 40.345 13.0948C39.845 12.1691 39.5949 11.101 39.5949 9.89052C39.5949 8.66578 39.845 7.59056 40.345 6.66489C40.8451 5.73921 41.5451 5.02715 42.4452 4.52871C43.3453 4.03026 44.3811 3.78104 45.5526 3.78104C46.6813 3.78104 47.6885 4.02314 48.5743 4.50734C49.4743 4.99154 50.1673 5.68224 50.653 6.57944C51.1531 7.46239 51.4031 8.48064 51.4031 9.63418ZM48.2957 8.77971C48.2814 8.01068 48.0028 7.39831 47.4599 6.94259C46.917 6.47263 46.2526 6.23765 45.4669 6.23765C44.7239 6.23765 44.0953 6.46551 43.581 6.92123C43.081 7.36271 42.7738 7.9822 42.6595 8.77971H48.2957Z" fill="#19144B"/>
  <path d="M53.8716 15.8077V0H55.7789L64.7368 6.13084V0H67.437V15.8077H64.7368V9.29239L56.5718 3.71696V15.8077H53.8716Z" fill="#19144B"/>
  <path d="M79.8425 12.9666H73.8849L72.8991 15.8077H69.7488L75.1278 0.875833H78.621L84 15.8077H80.8283L79.8425 12.9666ZM79.0282 10.5741L76.8637 4.33645L74.6992 10.5741H79.0282Z" fill="#19144B"/>
</svg>