<svg width="20" height="20" viewBox="0 0 20 20" fill="none" xmlns="http://www.w3.org/2000/svg">
<path d="M14.664 4.22922C14.9697 3.92359 15.4651 3.92359 15.7707 4.22922C16.0763 4.53485 16.0763 5.03026 15.7707 5.33589L11.1066 10L15.7707 14.6641C16.0763 14.9697 16.0763 15.4651 15.7707 15.7708C15.4651 16.0764 14.9697 16.0764 14.664 15.7708L9.99994 11.1067L5.33583 15.7708C5.0302 16.0764 4.53479 16.0764 4.22916 15.7708C3.92353 15.4651 3.92353 14.9697 4.22916 14.6641L8.89327 10L4.22916 5.33589C3.92353 5.03026 3.92353 4.53485 4.22916 4.22922C4.53479 3.92359 5.0302 3.92359 5.33583 4.22922L9.99994 8.89333L14.664 4.22922Z" fill="#181819"/>
</svg>
