<svg width="20" height="20" viewBox="0 0 20 20" fill="none" xmlns="http://www.w3.org/2000/svg">
<path d="M10 2C14.4183 2 18 5.58172 18 10C18 14.4183 14.4183 18 10 18C5.58172 18 2 14.4183 2 10C2 5.58172 5.58172 2 10 2ZM14.3936 6.36133C14.0409 6.14432 13.5785 6.25398 13.3613 6.60645L9.8584 12.2979L6.53027 8.96973C6.23738 8.67683 5.76262 8.67683 5.46973 8.96973C5.17683 9.26262 5.17683 9.73738 5.46973 10.0303L9.46973 14.0303C9.63199 14.1925 9.85998 14.2719 10.0879 14.2451C10.3155 14.2183 10.5184 14.0887 10.6387 13.8936L14.6387 7.39355C14.8557 7.04091 14.746 6.57851 14.3936 6.36133Z" fill="#00D219"/>
</svg>
