<svg width="375" height="193" viewBox="0 0 375 193" fill="none" xmlns="http://www.w3.org/2000/svg" preserveAspectRatio="none">
<g clip-path="url(#clip0_1520_3624)">
<rect width="375" height="193" fill="#7A63FF"/>
<g style="mix-blend-mode:soft-light" opacity="0.15">
<path d="M318.054 164.441C319.969 159.906 317.845 154.678 313.31 152.763L304.053 148.855C299.518 146.94 297.394 141.712 299.308 137.177L300.069 135.376C301.983 130.841 307.212 128.717 311.747 130.631L339.227 142.233C343.762 144.148 345.886 149.376 343.972 153.911L332.37 181.392C330.455 185.927 325.227 188.051 320.692 186.136L318.891 185.376C314.356 183.461 312.232 178.233 314.146 173.698L318.054 164.441Z" fill="#E2E3E4"/>
<path d="M351.954 135.003C350.04 139.538 352.164 144.767 356.699 146.681L365.955 150.589C370.49 152.504 372.615 157.732 370.7 162.267L369.94 164.068C368.025 168.603 362.797 170.728 358.262 168.813L330.781 157.211C326.246 155.296 324.122 150.068 326.037 145.533L337.638 118.053C339.553 113.518 344.782 111.394 349.317 113.308L351.118 114.069C355.653 115.983 357.777 121.212 355.862 125.747L351.954 135.003Z" fill="white"/>
</g>
<g style="mix-blend-mode:soft-light" opacity="0.15">
<path d="M31.0159 76.6816C32.9824 70.1762 29.3028 63.3084 22.7974 61.342L9.51934 57.3282C3.01394 55.3617 -0.665593 48.4939 1.30088 41.9885L2.08201 39.4044C4.04848 32.899 10.9163 29.2195 17.4217 31.1859L56.8421 43.102C63.3475 45.0685 67.027 51.9363 65.0605 58.4417L53.1444 97.8621C51.178 104.368 44.3102 108.047 37.8048 106.081L35.2206 105.299C28.7152 103.333 25.0357 96.4651 27.0022 89.9597L31.0159 76.6816Z" fill="#E2E3E4"/>
<path d="M73.2597 31.3183C71.2932 37.8237 74.9728 44.6915 81.4782 46.658L94.7563 50.6717C101.262 52.6382 104.941 59.506 102.975 66.0114L102.194 68.5955C100.227 75.1009 93.3593 78.7805 86.8539 76.814L47.4335 64.8979C40.9281 62.9314 37.2486 56.0636 39.2151 49.5582L51.1312 10.1378C53.0976 3.63244 59.9654 -0.0470947 66.4709 1.91938L69.055 2.70051C75.5604 4.66698 79.2399 11.5348 77.2734 18.0402L73.2597 31.3183Z" fill="white"/>
</g>
</g>
<defs>
<clipPath id="clip0_1520_3624">
<rect width="375" height="193" fill="white"/>
</clipPath>
</defs>
</svg>
