<svg width="20" height="20" viewBox="0 0 20 20" fill="none" xmlns="http://www.w3.org/2000/svg">
<path d="M10 13.5C10.1983 13.5 10.3647 13.4328 10.4991 13.2984C10.6335 13.164 10.7005 12.9979 10.7 12.8V10C10.7 9.80166 10.6328 9.63553 10.4984 9.5016C10.364 9.36766 10.1979 9.30046 10 9.3C9.80213 9.29953 9.636 9.36673 9.5016 9.5016C9.3672 9.63646 9.3 9.8026 9.3 10V12.8C9.3 12.9983 9.3672 13.1647 9.5016 13.2991C9.636 13.4335 9.80213 13.5005 10 13.5ZM10 7.9C10.1983 7.9 10.3647 7.8328 10.4991 7.6984C10.6335 7.564 10.7005 7.39786 10.7 7.2C10.6995 7.00213 10.6323 6.836 10.4984 6.7016C10.3645 6.5672 10.1983 6.5 10 6.5C9.80166 6.5 9.63553 6.5672 9.5016 6.7016C9.36766 6.836 9.30046 7.00213 9.3 7.2C9.29953 7.39786 9.36673 7.56423 9.5016 7.6991C9.63646 7.83396 9.8026 7.90093 10 7.9ZM10 17C9.03166 17 8.12166 16.8161 7.27 16.4484C6.41833 16.0807 5.6775 15.582 5.0475 14.9525C4.4175 14.323 3.91887 13.5821 3.5516 12.73C3.18433 11.8779 3.00047 10.9679 3 10C2.99953 9.03213 3.1834 8.12213 3.5516 7.27C3.9198 6.41786 4.41843 5.67703 5.0475 5.0475C5.67657 4.41797 6.4174 3.91933 7.27 3.5516C8.1226 3.18387 9.0326 3 10 3C10.9674 3 11.8774 3.18387 12.73 3.5516C13.5826 3.91933 14.3234 4.41797 14.9525 5.0475C15.5816 5.67703 16.0804 6.41786 16.4491 7.27C16.8178 8.12213 17.0014 9.03213 17 10C16.9986 10.9679 16.8147 11.8779 16.4484 12.73C16.0821 13.5821 15.5834 14.323 14.9525 14.9525C14.3216 15.582 13.5807 16.0809 12.73 16.4491C11.8793 16.8173 10.9693 17.0009 10 17ZM10 15.6C11.5633 15.6 12.8875 15.0575 13.9725 13.9725C15.0575 12.8875 15.6 11.5633 15.6 10C15.6 8.43666 15.0575 7.1125 13.9725 6.0275C12.8875 4.9425 11.5633 4.4 10 4.4C8.43666 4.4 7.1125 4.9425 6.0275 6.0275C4.9425 7.1125 4.4 8.43666 4.4 10C4.4 11.5633 4.9425 12.8875 6.0275 13.9725C7.1125 15.0575 8.43666 15.6 10 15.6Z" fill="#ECECED"/>
</svg>
