<svg width="24" height="24" viewBox="0 0 24 24" fill="none" xmlns="http://www.w3.org/2000/svg">
<path fill-rule="evenodd" clip-rule="evenodd" d="M15.636 9.27273C15.636 10.2372 15.2529 11.1621 14.5709 11.844C13.889 12.526 12.964 12.9091 11.9996 12.9091C11.0352 12.9091 10.1103 12.526 9.42831 11.844C8.74636 11.1621 8.36324 10.2372 8.36324 9.27273C8.36324 8.3083 8.74636 7.38338 9.42831 6.70143C10.1103 6.01948 11.0352 5.63636 11.9996 5.63636C12.964 5.63636 13.889 6.01948 14.5709 6.70143C15.2529 7.38338 15.636 8.3083 15.636 9.27273ZM13.8178 9.27273C13.8178 9.75494 13.6262 10.2174 13.2853 10.5584C12.9443 10.8994 12.4818 11.0909 11.9996 11.0909C11.5174 11.0909 11.0549 10.8994 10.714 10.5584C10.373 10.2174 10.1814 9.75494 10.1814 9.27273C10.1814 8.79052 10.373 8.32805 10.714 7.98708C11.0549 7.6461 11.5174 7.45455 11.9996 7.45455C12.4818 7.45455 12.9443 7.6461 13.2853 7.98708C13.6262 8.32805 13.8178 8.79052 13.8178 9.27273Z" fill="#181819"/>
<path fill-rule="evenodd" clip-rule="evenodd" d="M11.9996 2C6.47688 2 1.9996 6.47727 1.9996 12C1.9996 17.5227 6.47688 22 11.9996 22C17.5223 22 21.9996 17.5227 21.9996 12C21.9996 6.47727 17.5223 2 11.9996 2ZM3.81779 12C3.81779 13.9 4.46597 15.6491 5.55233 17.0382C6.31546 16.0365 7.29974 15.2247 8.42837 14.6661C9.55699 14.1076 10.7994 13.8174 12.0587 13.8182C13.3018 13.8167 14.5288 14.0992 15.6461 14.644C16.7634 15.1888 17.7416 15.9815 18.506 16.9618C19.2936 15.9287 19.824 14.7229 20.0531 13.4442C20.2823 12.1654 20.2036 10.8505 19.8237 9.60817C19.4437 8.36585 18.7734 7.23186 17.8682 6.30003C16.963 5.36821 15.8489 4.66533 14.6181 4.24955C13.3873 3.83378 12.0752 3.71707 10.7904 3.90907C9.50553 4.10107 8.28487 4.59626 7.22939 5.35368C6.17392 6.1111 5.31398 7.10897 4.72072 8.26472C4.12746 9.42047 3.81795 10.7009 3.81779 12ZM11.9996 20.1818C10.1213 20.1849 8.29973 19.5387 6.84324 18.3527C7.42943 17.5133 8.20978 16.8279 9.11785 16.355C10.0259 15.882 11.0348 15.6355 12.0587 15.6364C13.0698 15.6355 14.0665 15.8759 14.966 16.3376C15.8655 16.7992 16.6418 17.4689 17.2305 18.2909C15.7628 19.5155 13.9111 20.1848 11.9996 20.1818Z" fill="#181819"/>
</svg>
