<svg width="20" height="20" viewBox="0 0 20 20" fill="none" xmlns="http://www.w3.org/2000/svg">
<path d="M9.22222 16.2222V10.7778H3.77778C3.34822 10.7778 3 10.4296 3 10C3 9.57045 3.34822 9.22222 3.77778 9.22222H9.22222V3.77778C9.22222 3.34822 9.57045 3 10 3C10.4296 3 10.7778 3.34822 10.7778 3.77778V9.22222H16.2222C16.6518 9.22222 17 9.57045 17 10C17 10.4296 16.6518 10.7778 16.2222 10.7778H10.7778V16.2222C10.7778 16.6518 10.4296 17 10 17C9.57045 17 9.22222 16.6518 9.22222 16.2222Z" fill="#181819"/>
</svg>
