<svg width="24" height="24" viewBox="0 0 24 24" fill="none" xmlns="http://www.w3.org/2000/svg">
<rect x="2" y="2" width="20" height="20" rx="10" fill="#6109F8"/>
<path d="M16 11.0987C16 13.2661 14.7782 14.8541 12.7065 15.1438C12.8871 15.7661 13.3121 15.8841 13.7158 15.8841C13.9814 15.8841 14.162 15.8519 14.3426 15.7876V16.8712C14.162 16.9571 13.8858 17 13.5777 17C12.7596 17 11.6547 16.7532 11.336 15.1545C9.24303 14.8863 8 13.2768 8 11.0987C8 8.68455 9.50863 7 11.9947 7C14.4914 7 16 8.68455 16 11.0987ZM11.9947 13.8884C13.6839 13.8884 14.5976 12.7725 14.5976 11.0987C14.5976 9.42489 13.6839 8.30901 11.9947 8.30901C10.3054 8.30901 9.40239 9.42489 9.40239 11.0987C9.40239 12.7725 10.3054 13.8884 11.9947 13.8884Z" fill="white"/>
</svg>
