<svg width="24" height="24" viewBox="0 0 24 24" fill="none" xmlns="http://www.w3.org/2000/svg">
<path d="M2.22833 8.59338V5.14319C2.22833 3.439 3.61008 2.05725 5.31427 2.05725H8.57111C8.76046 2.05725 8.91388 2.21067 8.91388 2.40002C8.91388 2.58938 8.76046 2.7428 8.57111 2.7428H5.31427C3.98879 2.7428 2.91388 3.8177 2.91388 5.14319V8.59338C2.91388 8.78274 2.76046 8.93616 2.57111 8.93616C2.38175 8.93616 2.22833 8.78274 2.22833 8.59338Z" fill="#181819"/>
<path d="M22.1137 8.59338V5.14319C22.1137 3.439 20.7319 2.05725 19.0277 2.05725H15.7709C15.5815 2.05725 15.4281 2.21067 15.4281 2.40002C15.4281 2.58938 15.5815 2.7428 15.7709 2.7428H19.0277C20.3532 2.7428 21.4281 3.8177 21.4281 5.14319V8.59338C21.4281 8.78274 21.5815 8.93616 21.7709 8.93616C21.9603 8.93616 22.1137 8.78274 22.1137 8.59338Z" fill="#181819"/>
<path d="M22.1137 15.4066V18.8568C22.1137 20.561 20.7319 21.9427 19.0277 21.9427H15.7709C15.5815 21.9427 15.4281 21.7893 15.4281 21.6C15.4281 21.4106 15.5815 21.2572 15.7709 21.2572H19.0277C20.3532 21.2572 21.4281 20.1823 21.4281 18.8568V15.4066C21.4281 15.2173 21.5815 15.0638 21.7709 15.0638C21.9603 15.0638 22.1137 15.2173 22.1137 15.4066Z" fill="#181819"/>
<path d="M2.22815 15.4066V18.8568C2.22815 20.561 3.60989 21.9427 5.31409 21.9427H8.57092C8.76028 21.9427 8.9137 21.7893 8.9137 21.6C8.9137 21.4106 8.76028 21.2572 8.57092 21.2572H5.31409C3.9886 21.2572 2.9137 20.1823 2.9137 18.8568V15.4066C2.9137 15.2173 2.76028 15.0638 2.57092 15.0638C2.38157 15.0638 2.22815 15.2173 2.22815 15.4066Z" fill="#181819"/>
<path d="M1.19983 10.9636H22.7998V14.4H1.19983V10.9636Z" fill="url(#paint0_linear_70_470)"/>
<path d="M22.8006 10.4573V11.1428H1.20001V10.4573H22.8006Z" fill="#6109F8"/>
<defs>
<linearGradient id="paint0_linear_70_470" x1="11.9998" y1="10.9636" x2="11.9998" y2="14.4" gradientUnits="userSpaceOnUse">
<stop stop-color="#6D42FE"/>
<stop offset="1" stop-color="#6D42FE" stop-opacity="0"/>
</linearGradient>
</defs>
</svg>
