<svg width="24" height="24" viewBox="0 0 24 24" fill="none" xmlns="http://www.w3.org/2000/svg">
<path d="M3.60078 12.0001C3.60078 16.6393 7.36159 20.4001 12.0008 20.4001C16.64 20.4001 20.4008 16.6393 20.4008 12.0001C20.4008 7.36091 16.64 3.6001 12.0008 3.6001C7.36159 3.6001 3.60078 7.36091 3.60078 12.0001Z" fill="#FF2E4A"/>
<path d="M14.0465 9.00542C14.3089 8.743 14.7343 8.74301 14.9967 9.00542C15.2591 9.26786 15.2591 9.69319 14.9967 9.95562L12.9508 12.0005L14.9957 14.0455C15.2578 14.3079 15.258 14.7334 14.9957 14.9957C14.7334 15.2579 14.308 15.2577 14.0455 14.9957L12.0006 12.9507L9.95764 14.9957C9.69521 15.2581 9.2689 15.2581 9.00647 14.9957C8.74419 14.7334 8.74446 14.3079 9.00647 14.0455L11.0504 12.0005L9.00549 9.95562C8.74306 9.69319 8.74308 9.26786 9.00549 9.00542C9.26792 8.74299 9.69325 8.74299 9.95569 9.00542L12.0006 11.0503L14.0465 9.00542Z" fill="white"/>
</svg>
